PathFileType	4	(X/Y/Z)	C:/Users/opensim2020/Desktop/walking_exp_matlab/subject01/subject01_trc/subject01_walking16_run_cyclic.trc	
DataRate	CameraRate	NumFrames	NumMarkers	Units	OrigDataRate	OrigDataStartFrame	OrigNumFrames	
100.00	100.00	8	63	mm	100.00	390	54	
Frame#	Time	LKNE			RELB			LTHI			RUPA			LTIB			RFRM			LTOE			LSHO			RWRA			RSHO			RWRB			STRN			RFIN			RBHD			CLAV			LHEE			LFHD			RASI			RFHD			LBHD			C7			LWRB			LWRA			LFRM			RTHI			RKNE			LELB			LFIN			LUPA			RTIB			RANK			RTOE			RHEE			T10			RBAK			LASI			LPSI			RPSI			LANK			*39			*40			*41			*42			*43			*44			*45			*46			*47			*48			*49			*50			*51			*52			*53			*54			*55			*56			*57			*58			*59			*60			*61			*62			
		X1	Y1	Z1	X2	Y2	Z2	X3	Y3	Z3	X4	Y4	Z4	X5	Y5	Z5	X6	Y6	Z6	X7	Y7	Z7	X8	Y8	Z8	X9	Y9	Z9	X10	Y10	Z10	X11	Y11	Z11	X12	Y12	Z12	X13	Y13	Z13	X14	Y14	Z14	X15	Y15	Z15	X16	Y16	Z16	X17	Y17	Z17	X18	Y18	Z18	X19	Y19	Z19	X20	Y20	Z20	X21	Y21	Z21	X22	Y22	Z22	X23	Y23	Z23	X24	Y24	Z24	X25	Y25	Z25	X26	Y26	Z26	X27	Y27	Z27	X28	Y28	Z28	X29	Y29	Z29	X30	Y30	Z30	X31	Y31	Z31	X32	Y32	Z32	X33	Y33	Z33	X34	Y34	Z34	X35	Y35	Z35	X36	Y36	Z36	X37	Y37	Z37	X38	Y38	Z38	X39	Y39	Z39	X40	Y40	Z40	X41	Y41	Z41	X42	Y42	Z42	X43	Y43	Z43	X44	Y44	Z44	X45	Y45	Z45	X46	Y46	Z46	X47	Y47	Z47	X48	Y48	Z48	X49	Y49	Z49	X50	Y50	Z50	X51	Y51	Z51	X52	Y52	Z52	X53	Y53	Z53	X54	Y54	Z54	X55	Y55	Z55	X56	Y56	Z56	X57	Y57	Z57	X58	Y58	Z58	X59	Y59	Z59	X60	Y60	Z60	X61	Y61	Z61	X62	Y62	Z62	X63	Y63	Z63	

28	0.270	-563.16095	-71.71022	434.87711	-148.54463	-121.11310	1215.22144	-582.18530	-7.89415	557.15094	-210.44048	-40.18037	1292.96973	-567.52191	-225.63889	322.02020	-106.43848	-110.00091	1092.49487	-496.09869	-343.28082	30.72509	-604.84363	201.15520	1340.92078	-123.77569	-30.91274	978.85297	-308.56824	128.09021	1361.08887	-84.80945	-73.12849	975.46667	-423.44556	235.84943	1154.02844	-72.04602	-16.06563	913.41083	-394.87915	100.95895	1574.00549	-436.51404	214.65492	1313.97644	-465.49155	-428.16418	195.74664	-526.24298	196.01207	1621.95459	-340.76212	115.04858	909.89069	-414.53455	208.62227	1637.07678	-513.61737	89.79356	1560.61462	-480.76709	76.90394	1388.81189	-555.77710	439.88107	1102.36426	-543.67438	403.45721	1147.23975	-639.74249	361.23050	1062.63647	-293.39606	271.06372	698.46765	-324.73508	379.71722	587.14746	-713.35840	268.26923	1027.36670	-521.26263	474.99573	1166.60022	-696.37891	232.62422	1173.73645	-305.84323	310.22925	421.52570	-338.44586	248.77364	214.43173	-349.56631	369.09177	131.22498	-385.00296	188.98080	185.21201	-474.48599	-10.01420	1114.23682	-408.07361	-12.69317	1221.15417	-545.81427	119.50883	884.81799	-500.21613	-62.54001	917.67963	-356.13159	-60.34249	920.17413	-516.64716	-388.17264	174.38004	-3101.94482	1973.18237	1023.71594	-3140.68262	2012.47534	1022.02747																									-439.40210	190.33495	1666.31799																																							 
29	0.280	-564.96820	-34.08208	444.15173	-153.40511	-80.57458	1224.72266	-583.71344	35.14407	562.93561	-214.05132	2.85064	1301.81714	-571.64691	-191.69696	335.70605	-108.84006	-70.21532	1102.91235	-494.50287	-332.49695	38.15033	-600.99329	251.06882	1345.96667	-122.59294	11.04440	988.24982	-308.08130	172.78104	1365.75195	-84.95177	-31.73348	985.46881	-419.65579	283.93878	1160.08826	-70.20442	25.65714	923.09784	-393.41214	149.25676	1579.27307	-433.60580	261.08957	1319.52612	-474.16068	-392.50092	215.66293	-525.30609	244.38489	1625.15894	-344.71140	166.89328	913.86365	-413.78839	257.64053	1640.74768	-512.04993	137.45456	1565.53882	-480.38110	124.01436	1392.20789	-546.49292	481.57013	1118.64221	-536.36218	442.37061	1162.29614	-632.54498	408.71976	1073.46228	-295.39725	317.53909	696.83533	-325.84622	431.63419	589.20874	-709.47583	320.50043	1033.68359	-510.06680	511.60938	1185.30286	-691.61755	287.99084	1180.15686	-306.80432	381.20535	415.80557	-343.18710	341.67261	204.42570	-358.98135	469.67868	133.07394	-389.27420	284.56870	170.88869	-479.60132	39.82804	1116.33069	-410.96103	35.29261	1224.21484	-547.19879	172.37906	888.28522	-503.96741	-9.75400	920.97467	-359.22531	-8.53649	925.32928	-524.53430	-355.20395	186.22298	-3101.94531	1973.13013	1023.54083	-3140.64453	2012.63330	1022.13422																									-438.65948	240.02910	1670.76575																																							 
30	0.290	-566.78540	8.22425	450.84323	-158.12344	-39.09015	1232.09827	-585.52765	79.78905	567.69604	-217.39612	46.57090	1309.07800	-574.29480	-150.99646	345.86124	-111.44096	-28.24436	1110.79883	-493.84103	-309.62106	52.46759	-597.07166	300.65982	1350.01343	-122.28838	54.62078	995.74652	-307.13647	218.47287	1369.26709	-85.68488	10.67656	993.02576	-416.88602	331.79352	1165.46851	-69.21470	68.64487	930.61023	-391.83606	197.55070	1583.47351	-430.84305	307.52161	1324.59900	-483.34991	-358.58185	236.31920	-524.38208	292.56519	1627.67383	-347.93747	218.72723	916.79944	-412.99313	306.41528	1643.57593	-510.36145	184.95625	1569.51257	-479.48267	171.17882	1395.21252	-538.92932	521.55725	1132.23645	-530.79150	480.42392	1174.27673	-626.96442	453.92712	1082.78882	-297.36496	363.38135	692.69244	-326.56033	481.30692	585.97357	-706.71741	370.40466	1038.81848	-500.05035	546.75958	1200.46106	-686.62152	340.44022	1185.26416	-307.65622	449.16888	408.10059	-347.37503	429.61353	195.38020	-367.40222	563.28784	134.22189	-394.10587	374.87186	158.36716	-484.05518	89.59059	1118.62610	-413.50122	83.19842	1227.06384	-548.29858	224.40097	891.51453	-507.39606	42.86485	924.62872	-362.32703	43.38553	930.40625	-530.17413	-322.74774	203.40199	-3101.87402	1973.18176	1023.38086	-3140.62622	2012.55725	1022.08075																									-437.93747	289.52100	1674.55518																																							 
31	0.300	-566.86536	56.35646	453.54733	-162.40253	3.75075	1236.96521	-587.28778	127.24408	571.07843	-220.04187	91.06071	1314.49280	-577.08691	-105.33088	352.61325	-113.96284	15.04055	1115.63611	-492.72781	-279.87378	70.86698	-593.32886	349.79846	1353.03979	-122.85186	99.55228	1000.91595	-306.17801	264.17456	1371.97083	-87.05592	54.59254	998.14777	-413.73364	379.73959	1170.29736	-68.93498	113.04553	935.83148	-390.30072	245.49582	1586.59314	-428.35440	354.08728	1328.87903	-491.65552	-322.02319	257.65207	-523.48071	340.32425	1629.72827	-350.45520	270.10126	918.10132	-411.96378	354.81485	1645.86389	-508.81009	232.32121	1572.38208	-478.49197	218.37610	1397.72388	-532.96771	560.80804	1142.29077	-526.32220	517.95654	1182.65576	-622.76831	497.54108	1089.56299	-298.61536	410.05051	686.75195	-326.90469	528.27283	578.93048	-704.56610	417.94934	1042.59302	-491.67062	581.37012	1211.64270	-682.97760	389.49744	1189.37830	-309.33835	512.94952	399.22501	-350.81012	511.77985	186.77287	-374.35529	649.24554	132.93571	-398.09003	459.72153	148.69131	-486.99899	140.26151	1120.52576	-415.48071	131.22046	1229.63940	-549.88702	275.75580	893.30420	-510.38004	95.27979	928.71552	-365.03052	95.47453	935.05280	-535.01141	-285.81021	221.89189	-3101.82275	1973.08887	1023.42145	-3140.59229	2012.60474	1022.09235																									-437.06998	338.67722	1677.67273																																							 
32	0.310	-566.26984	109.79958	452.33429	-165.89838	48.00090	1239.06604	-587.63470	179.30629	571.63464	-221.98299	136.24561	1317.83936	-579.85706	-55.43204	357.85544	-116.32606	60.30100	1117.68555	-492.76035	-247.07550	91.60443	-590.14435	398.55850	1355.55396	-124.01331	145.41536	1003.70770	-305.14642	310.37024	1373.67651	-88.82215	100.08158	1000.21106	-410.93393	427.75726	1174.18433	-69.15872	159.03925	938.47614	-388.81171	293.31821	1588.85962	-426.20483	400.94086	1332.17163	-499.09412	-281.21988	279.96890	-522.36786	387.84753	1631.47144	-352.57916	320.99490	918.00134	-411.00995	402.76974	1647.77625	-507.34995	279.62927	1574.43933	-477.43231	265.48285	1399.63464	-527.92664	599.58032	1147.87561	-522.64178	555.59985	1187.03259	-620.12018	539.86963	1093.83582	-299.15598	457.46634	678.84412	-327.75528	573.44269	569.09521	-703.45111	463.38483	1044.86743	-484.91315	616.52606	1217.56396	-681.14355	436.05444	1192.64417	-311.12021	571.01001	389.91934	-353.46774	586.48090	178.40930	-380.19748	726.34119	128.83884	-401.20267	536.67493	140.13956	-488.88361	189.66714	1122.76160	-416.78769	179.14139	1231.65613	-550.66913	326.33899	894.47174	-512.85358	147.62152	933.11230	-367.51627	147.63412	938.81885	-539.38904	-244.90915	241.18481	-3101.92456	1973.15967	1023.50012	-3140.73315	2012.56580	1021.99103																									-436.24860	387.22968	1679.75903																																							 
33	0.320	-566.29388	167.41426	448.77823	-168.55563	94.00813	1238.15820	-587.99536	234.79759	569.44598	-223.11925	182.50084	1318.85571	-581.56421	-1.53386	362.22461	-118.75558	107.11144	1116.76611	-495.46774	-211.48314	112.49166	-587.72467	446.61972	1357.20825	-123.87212	194.73518	1004.02808	-304.15231	357.09924	1374.41260	-90.97737	147.28769	999.40234	-408.95352	475.92191	1176.89429	-70.15205	207.01768	938.50446	-387.56357	340.96103	1590.59021	-424.51114	448.09146	1334.48254	-502.63858	-234.62119	302.70511	-521.26416	435.33456	1632.83826	-354.56055	371.55444	917.30243	-409.91516	450.55554	1649.24475	-505.94717	327.11179	1576.00549	-476.30548	312.70697	1401.01416	-523.66931	638.28711	1148.40039	-519.62012	593.93445	1187.32520	-617.96802	580.49268	1094.96326	-298.98209	504.70343	669.30804	-328.63828	616.73102	556.93854	-703.59576	506.41351	1046.15247	-479.79422	653.67010	1217.72571	-681.21130	481.22736	1194.40283	-311.83154	622.20740	379.90903	-355.73666	652.26617	169.70671	-385.23157	793.61108	123.27371	-403.65686	603.62897	131.44838	-489.57159	238.69601	1124.77405	-417.45099	226.85063	1232.99353	-552.25421	376.99100	895.21277	-514.86072	199.97679	937.49988	-369.59164	199.57991	941.27814	-543.21252	-200.11707	261.14264	-3101.90186	1973.18091	1023.45343	-3140.67383	2012.63293	1022.10864																									-435.37762	435.14499	1681.43250																																							 
34	0.330	-566.69769	228.33543	444.39429	-170.57520	141.48611	1234.59375	-588.59277	292.65912	566.54089	-223.38290	230.12244	1317.02368	-582.98633	55.36461	366.53207	-121.19382	155.47688	1112.95935	-500.91010	-170.53433	133.33011	-586.28784	494.26520	1358.50000	-125.37848	244.72749	1001.70795	-303.12689	404.19693	1374.34424	-93.54985	197.02586	996.03314	-408.01089	524.15131	1178.36853	-72.16229	257.23575	935.98816	-386.25592	388.43173	1591.74255	-423.25357	495.49603	1335.87476	-503.32852	-183.47972	324.94284	-520.06842	482.71735	1633.59094	-356.29211	422.12534	916.28882	-408.84039	498.22696	1650.11230	-504.56158	374.42441	1577.01379	-474.97061	360.05743	1401.88452	-520.43689	677.16364	1143.52490	-517.11401	633.51605	1183.59778	-616.86053	620.21637	1093.03528	-297.86600	551.00494	658.43536	-329.15344	658.52094	543.42657	-704.77692	546.68701	1046.75317	-475.89630	693.55658	1211.84351	-682.68085	524.64063	1194.58862	-312.67032	667.34735	368.00699	-357.39337	708.25055	159.96255	-389.09634	850.87482	114.60767	-405.24084	661.55981	122.22032	-489.32516	286.86197	1126.47156	-417.42148	274.33200	1233.58765	-553.56708	427.32983	896.05035	-516.25439	251.98769	941.17242	-371.43735	250.91483	941.92078	-545.63538	-150.87515	282.41745	-3101.98926	1973.05554	1023.57550	-3140.87842	2012.48059	1022.06335																									-434.54291	482.65332	1682.36206																																							 
35	0.340	-569.18182	291.40552	439.82648	-171.84903	190.11986	1228.44458	-590.30524	352.48749	563.30865	-222.66983	278.62131	1312.28394	-584.81268	113.77353	372.23462	-123.37467	205.47736	1106.47253	-508.55649	-123.52802	153.58115	-585.73798	541.33807	1358.97192	-127.75526	297.36438	997.02740	-302.11517	451.36856	1373.24121	-96.41964	249.18176	990.14056	-408.04141	572.33643	1178.36438	-75.15590	310.44983	931.17810	-384.84955	435.74237	1592.03516	-422.30994	542.97601	1336.21594	-502.65009	-127.09972	345.91260	-518.77338	529.94293	1633.45825	-357.93576	472.65076	914.79895	-407.70694	545.52881	1650.13733	-503.19745	421.53891	1577.12512	-473.31824	407.49753	1402.21033	-518.81055	716.34192	1133.67456	-515.12225	674.77246	1175.97339	-616.76569	658.60797	1087.93604	-296.34109	595.73315	646.37817	-329.35294	699.52875	528.94641	-706.94373	584.10974	1046.48364	-473.09467	735.73071	1200.16003	-685.00745	565.88275	1194.03784	-314.08804	708.50610	354.65686	-358.77960	754.92816	148.69472	-392.10306	897.29773	99.94696	-407.92712	708.63391	113.32433	-487.78778	335.31433	1127.11487	-416.62585	321.68469	1233.48486	-555.84161	477.92505	896.88824	-517.07581	303.56277	943.46014	-372.83426	301.76038	940.82104	-547.04645	-98.18799	303.58005	-3102.18335	1972.93787	1023.93799	-3140.80347	2012.45752	1022.11548																									-433.40729	529.86438	1682.64282																																							 
